<svg width="51" height="51" viewBox="0 0 51 51" fill="none" xmlns="http://www.w3.org/2000/svg">
    <path
        d="M31.9469 2.48941C32.414 0.62507 34.7224 -0.0368701 36.1065 1.29665L49.2946 14.0031C50.6814 15.3393 50.1003 17.6758 48.2491 18.2066L30.6103 23.2644C28.7591 23.7953 27.0281 22.1217 27.4961 20.2537L31.9469 2.48941Z"
        fill="#36BCEE" />
    <path
        d="M12.2258 14.1217C13.3573 12.5681 15.7456 12.8191 16.5293 14.5741L23.9972 31.2956C24.7825 33.054 23.3684 35.0027 21.4532 34.8014L3.20405 32.8833C1.28883 32.682 0.310789 30.4819 1.44451 28.9252L12.2258 14.1217Z"
        fill="#66C75C" />
    <path
        d="M29.5057 30.1191C29.5079 28.1972 31.5877 26.9964 33.2533 27.9555L49.1236 37.094C50.7924 38.055 50.7938 40.4627 49.126 41.4256L33.2348 50.6004C31.567 51.5633 29.4826 50.3583 29.4848 48.4325L29.5057 30.1191Z"
        fill="#E72B78" />
</svg>
    